<svg width="60" height="60" viewBox="0 0 60 60" fill="none" xmlns="http://www.w3.org/2000/svg">
<rect width="60" height="60" rx="30" fill="#383E47"/>
<path d="M35.6421 27.6594C36.9685 28.4275 37.6318 28.8115 37.8544 29.313C38.0485 29.7503 38.0485 30.2497 37.8544 30.6871C37.6318 31.1884 36.9685 31.5725 35.6421 32.3406L26.0421 37.8996C24.7156 38.6677 24.0524 39.0518 23.5082 38.9944C23.0335 38.9444 22.6022 38.6946 22.3217 38.3073C22 37.8633 22 37.0952 22 35.559V24.441C22 22.9048 22 22.1367 22.3217 21.6927C22.6022 21.3054 23.0335 21.0557 23.5082 21.0056C24.0524 20.9482 24.7156 21.3323 26.0421 22.1004L35.6421 27.6594Z" fill="white"/>
</svg>
