<svg width="16" height="16" viewBox="0 0 16 16" fill="none" xmlns="http://www.w3.org/2000/svg">
<g opacity="0.9">
<path d="M5.28049 14C10.8137 14 13.841 9.38278 13.841 5.37993C13.841 5.25014 13.8381 5.11745 13.8324 4.98765C14.4213 4.55879 14.9295 4.02761 15.3332 3.41904C14.7847 3.66476 14.2024 3.82523 13.6061 3.89499C14.234 3.51603 14.7041 2.92071 14.9292 2.21937C14.3386 2.57185 13.6927 2.82049 13.0192 2.95464C12.5654 2.46909 11.9653 2.1476 11.3119 2.03986C10.6584 1.93214 9.98785 2.04417 9.40401 2.35865C8.82012 2.67312 8.35539 3.17253 8.08163 3.77966C7.80788 4.38678 7.74037 5.06779 7.88955 5.71743C6.69358 5.657 5.52358 5.34415 4.45538 4.79918C3.38719 4.25421 2.44465 3.48928 1.68888 2.55398C1.30475 3.22087 1.18721 4.01001 1.36013 4.76103C1.53306 5.51205 1.98348 6.16857 2.61986 6.5972C2.14211 6.58193 1.67482 6.45241 1.25661 6.21933V6.25683C1.25618 6.95667 1.49645 7.63508 1.93658 8.17671C2.37672 8.71834 2.98954 9.08978 3.67088 9.22788C3.22831 9.34981 2.76383 9.36758 2.31336 9.2798C2.50562 9.88169 2.87968 10.4081 3.38337 10.7855C3.88704 11.163 4.49519 11.3728 5.12293 11.3855C4.05721 12.2284 2.74072 12.6857 1.38551 12.6835C1.14518 12.6831 0.905082 12.6684 0.666504 12.6391C2.04325 13.5285 3.64478 14.0009 5.28049 14Z" fill="#9098A0"/>
</g>
</svg>
